<svg xmlns="http://www.w3.org/2000/svg" xml:space="preserve" width="86px" height="99px" version="1.1" viewBox="0 0 75.26 87.12">
  <path fill="#ae8e5a" d="M29.04 48.09c-1.07,-3.29 -4.35,-23.15 -2.14,-26.58 1.52,0.96 2.86,4.45 4.11,5.68 1.14,-0.65 0.59,-0.75 1.83,-1.49 3.29,2.68 2.03,6.49 2.16,10.92 2.05,-0.57 3.85,-4.9 3.96,-7.93 0.17,-5 -2,-6.3 -2.97,-9.51 1.5,0.32 1.61,0.89 2.78,1.61 1.03,-0.5 1.1,-0.76 1.72,-1.49 3.05,1.27 3.47,6.39 4.72,9.73 0.4,0.74 -0.38,0.53 0.81,0.62 4.43,-7.42 1,-8.59 0.15,-12.43 1.59,0.01 2.79,1.04 4.58,1.37 -0.6,-3.1 -4.32,-6.1 -7.01,-7.45 -5.58,-2.81 -7.91,-0.71 -12.97,-0.88 1.55,-3.19 7.45,-1.68 9.78,-3.23 -1.22,-2.06 -4.36,-2.03 -5.19,-3.84l2.61 -1.25c-1.81,-2.49 -7.27,-2.93 -10.68,1.63 -0.78,1.06 -1.15,2.49 -2.14,3.42 -1.3,-1.04 -1.89,-5.47 -7.16,-6.77 -3.01,-0.74 -9.76,0.47 -10.87,2.53 2.14,0.94 7.34,0.79 8.9,2.18 -1.06,1.03 -1.04,0.12 -1.69,1.4 1.1,0.96 1.39,0.62 1.97,1.75 -1.77,0.77 -6.24,-1.42 -10.61,1.48 -2.26,1.51 -5.05,4.53 -5.69,8.1l3.05 -0.64c-0.65,4.46 -1.74,6.84 -1.11,11.73 1.3,-0.67 1.52,-2.38 2.18,-3.65 1.92,-3.7 5.64,-6.82 10.25,-7.04 -0.95,2.11 -10.81,6.27 -9.55,15.19 1.21,-1.67 1.71,-2.17 3.22,-2.52 0.69,1.04 2.81,14.54 7.64,14.28 -0.65,-2.92 -1.44,-6.15 -1.15,-8.42 1.01,-1.51 2.01,0 3.01,0.5 -0.39,-2.14 -1,-5.01 -0.04,-7.25 1.04,0.24 1.04,0.74 2.07,1.36 1.29,-1.64 0.78,-3.8 2.09,-5.44 0.22,0.57 0.33,0.89 0.38,1.51 0.38,4.97 -0.31,5.35 0.95,12.99 1.36,8.22 3.84,16.98 6.79,24.65 0.79,2.08 5.72,10.43 7.27,12.2 5.8,6.63 8,8.51 11,10.01 6.86,-8.72 8.64,-11.45 10.88,-22.92 0.51,-2.58 0.87,-5.27 1.09,-7.94 0.17,-2.16 -0.25,-7.64 0.51,-8.91 1.03,1.05 1.09,2.37 1.11,4.26l2.53 0.43 -0.58 4.74 2.39 -0.36 -0.29 5.07c3.22,-0.47 5.03,-5.01 5.11,-9.2 2.22,0.75 0.1,0.92 2.09,1.08 0.13,-4.93 -4.63,-6.56 -4.68,-8.49 2.21,0.52 4.09,2.12 5.26,3.92 0.7,1.09 0.42,1.4 1.76,1.97 0.15,-2.49 -0.31,-5.23 -1.48,-7 0.65,-1.43 -0.03,0.06 1.16,-1.12 -0.93,-2.08 -1.81,-3.69 -3.99,-4.56 -1.23,-0.49 -2.46,-0.66 -3.83,-0.58 -1.59,0.1 -2.5,0.77 -3.55,0.25 0.51,-0.65 1.48,-0.95 2.13,-1.4 -0.85,-1.59 -0.95,-0.03 -0.87,-1.56l4.94 -0.48c-0.78,-1.47 -3.86,-3.15 -6.19,-3.2 -3.75,-0.08 -3.95,2.37 -5.57,3.88 -1.11,-0.76 -4.14,-5.28 -7.61,-4.12 -1.42,0.48 -0.08,0.73 0.45,1.85 -1.54,1.07 -3.85,1.12 -4.73,2.93 2.14,0.89 4.6,-0.3 6.61,1.75 -1.93,1.3 -2.8,-0.55 -7.94,3.54 -0.9,0.72 -4.88,4.82 -4.73,6.38l2.31 -0.31c-0.42,1.66 -1.52,2.67 -1.47,4.7 0.05,1.92 1.13,3.52 2.44,3.84 0.98,-2.47 0.01,-3.18 3.1,-6.93 0.14,0.96 0.37,1.32 0.14,1.97 1,-1.01 1.5,-1.01 2.37,-0.62 -2.35,4.2 -1.78,9.83 1.96,11.73 -0.32,-2.61 -0.32,-5.61 1.1,-8 1.58,-1.11 1.58,-0.11 2.67,0.64 0.09,-2.01 0.25,-4.53 0.96,-6.43 0.45,-1.22 0.32,-1.21 1.04,-1.15 1.19,3.46 -0.9,14.12 -1.91,17.78 -0.78,2.86 -4.21,12.2 -6.89,13.58 -2.94,-1.03 -12.3,-10.02 -18.81,-30.04z"/>
</svg>
