<svg width="51px" height="51px" viewBox="0 0 15.39 15.39" fill="none" xmlns="http://www.w3.org/2000/svg">
  <rect fill="none" width="15.39" height="15.39"/>
  <path fill="#808080" d="M11.92 3.47l0 8.45 -8.45 0 0 -8.45 8.45 0zm-0.91 0.91l-6.63 0 0 6.63 6.63 0 0 -6.63z"/>
  <path fill="#35B000" d="M14.43 1.03c-0.74,0.75 -1.51,1.65 -2.33,2.69 -1.48,1.9 -2.61,3.67 -3.39,5.31 -0.55,0.37 -1.23,0.79 -1.69,1.23 -0.26,-0.93 -1.12,-2.9 -1.67,-3.61 -0.29,-0.38 -0.61,-0.63 -0.97,-0.76 0.61,-0.64 1.16,-0.96 1.67,-0.96 0.44,0 0.92,0.59 1.45,1.77l0.26 0.59c0.96,-1.61 2.19,-3.17 3.68,-4.69 0.84,-0.85 1.66,-1.58 2.47,-2.21 0.37,-0.01 0.73,0.21 0.52,0.64z"/>
</svg>
