<svg width="37px" height="37px" viewBox="0 0 18.5 18.5" fill="none" xmlns="http://www.w3.org/2000/svg">
  <rect fill="none" width="18.5" height="18.5"/>
  <path fill="#808080" d="M16.25 4.47l0 11.78 -8.35 0c0.87,-0.59 0.71,-0.58 1.19,-1.5l5.66 0 0 -8.49c0.49,-0.6 0.99,-1.2 1.5,-1.79zm-11.83 11.78l-2.17 0 0 -4.4c0.74,0.97 1.68,3.13 2.17,4.4zm-2.17 -7.65l0 -6.35 12.43 0c-0.55,0.49 -1.09,0.99 -1.62,1.5l-9.31 0 0 4.42c-0.54,0 -1.04,0.17 -1.5,0.43z"/>
  <path fill="#35B000" d="M17.66 2.21c-1.22,1.24 -2.51,2.72 -3.87,4.46 -2.45,3.14 -4.32,6.07 -5.61,8.79 -0.9,0.61 -2.03,1.31 -2.8,2.04 -0.43,-1.54 -1.85,-4.81 -2.76,-5.98 -0.48,-0.63 -1.02,-1.05 -1.62,-1.26 1.01,-1.06 1.94,-1.59 2.78,-1.59 0.72,0 1.52,0.98 2.4,2.93l0.44 0.99c1.58,-2.68 3.61,-5.27 6.09,-7.79 1.38,-1.4 2.74,-2.62 4.09,-3.65 0.61,-0.01 1.2,0.35 0.86,1.06z"/>
</svg>
